<?xml version="1.0" standalone="no"?>
<!DOCTYPE svg PUBLIC "-//W3C//DTD SVG 20010904//EN"
 "http://www.w3.org/TR/2001/REC-SVG-20010904/DTD/svg10.dtd">
<svg version="1.0" xmlns="http://www.w3.org/2000/svg"
 width="512.000000pt" height="512.000000pt" viewBox="0 0 512.000000 512.000000"
 preserveAspectRatio="xMidYMid meet">

<g transform="translate(0.000000,512.000000) scale(0.100000,-0.100000)"
fill="#014361" stroke="none">
<path d="M1840 5104 c-88 -18 -233 -92 -302 -154 -71 -64 -149 -179 -177 -262
-72 -216 -27 -455 116 -618 73 -83 81 -154 20 -187 -29 -16 -80 -18 -557 -23
-511 -5 -527 -6 -583 -27 -153 -58 -271 -176 -329 -328 l-23 -60 -3 -1483 c-3
-1633 -6 -1546 59 -1674 41 -82 145 -186 227 -227 126 -64 45 -61 1628 -61
985 0 1459 3 1500 11 196 35 372 204 419 400 12 53 15 155 15 580 0 570 -4
533 63 558 36 14 67 1 131 -54 67 -59 186 -121 272 -141 351 -81 695 130 784
480 63 247 -39 513 -253 658 -254 172 -597 149 -824 -55 -45 -41 -78 -52 -114
-38 -62 23 -59 -2 -59 514 0 521 -3 547 -62 661 -48 90 -147 185 -238 229 -41
19 -102 40 -134 46 -36 7 -222 11 -475 11 -262 0 -430 4 -454 11 -50 14 -77
42 -77 80 0 38 11 60 68 129 52 64 105 170 127 255 19 76 19 211 -1 295 -41
175 -172 340 -334 419 -139 68 -284 87 -430 55z m342 -206 c135 -67 230 -190
258 -335 23 -116 -3 -205 -106 -363 -68 -106 -93 -172 -94 -248 0 -106 45
-176 147 -227 l58 -30 470 -6 c454 -7 472 -8 530 -30 82 -30 172 -120 206
-204 24 -60 24 -61 29 -575 5 -467 7 -518 22 -542 42 -63 151 -118 236 -118
72 0 134 25 197 80 108 95 201 132 335 132 270 0 470 -193 470 -453 0 -351
-374 -576 -688 -415 -26 13 -74 47 -106 75 -73 62 -116 83 -181 89 -64 5 -116
-9 -184 -50 -104 -63 -95 -9 -101 -651 l-5 -562 -24 -60 c-33 -83 -124 -174
-204 -203 l-58 -22 -1477 2 -1477 3 -55 26 c-70 33 -136 99 -169 169 l-26 55
0 1500 0 1500 25 50 c33 67 102 135 175 171 l60 29 530 5 530 5 55 28 c73 38
98 62 126 122 49 103 28 197 -83 371 -86 136 -93 153 -100 234 -11 129 35 249
132 346 106 107 204 144 366 141 99 -2 110 -4 181 -39z"/>
<path d="M1735 3324 c-498 -76 -930 -439 -1093 -919 -48 -143 -63 -228 -69
-401 -7 -192 9 -311 63 -474 72 -218 171 -377 339 -546 348 -351 839 -487
1319 -364 257 65 467 189 653 384 198 207 322 454 368 735 25 149 16 396 -19
537 -92 371 -299 657 -621 859 -95 60 -128 66 -168 35 -59 -46 -42 -114 40
-161 251 -144 445 -377 541 -651 53 -150 66 -226 65 -403 0 -223 -34 -361
-134 -555 -287 -556 -948 -795 -1535 -556 -258 105 -484 317 -613 575 -90 177
-126 335 -125 546 0 205 43 382 136 555 199 373 551 603 981 642 124 11 129
13 153 42 31 36 27 80 -12 114 -22 19 -36 22 -102 21 -42 -1 -117 -7 -167 -15z"/>
<path d="M2021 2368 c-103 -264 -321 -830 -321 -834 0 -3 46 -3 102 -2 l101 3
163 420 c90 231 164 423 164 428 0 4 -45 7 -100 7 -95 0 -101 -1 -109 -22z"/>
<path d="M1313 2119 l-293 -150 0 -68 0 -68 291 -149 c161 -82 296 -150 300
-152 5 -2 9 44 9 102 l0 106 -155 77 c-85 43 -155 80 -155 83 0 3 70 40 155
83 l155 77 0 105 c0 58 -3 105 -7 105 -5 0 -140 -68 -300 -151z"/>
<path d="M2290 2166 l0 -106 157 -79 158 -79 -158 -78 -157 -79 0 -108 0 -108
218 112 c119 62 252 131 294 153 l78 41 0 67 0 66 -286 149 c-158 81 -291 150
-295 151 -5 2 -9 -44 -9 -102z"/>
</g>
</svg>
