<svg height="64" viewBox="0 0 64 64" width="64" xmlns="http://www.w3.org/2000/svg"><g fill="none" fill-rule="evenodd" transform="translate(7 5)"><path d="m37 34c-7.18 0-13-1.344-13-3v8c0 1.656 5.82 3 13 3s13-1.344 13-3v-8c0 1.656-5.82 3-13 3" fill="#67c1b6"/><path d="m37 26c-7.18 0-13-1.344-13-3v8c0 1.656 5.82 3 13 3s13-1.344 13-3v-8c0 1.656-5.82 3-13 3" fill="#67c1b6"/><path d="m37 18c-7.18 0-13-1.344-13-3v8c0 1.656 5.82 3 13 3s13-1.344 13-3v-8c0 1.656-5.82 3-13 3" fill="#67c1b6"/><path d="m50 15c0 1.657-5.82 3-13 3s-13-1.343-13-3 5.82-3 13-3 13 1.343 13 3" fill="#87d6cd"/><path d="m13 44c-7.18 0-13-1.344-13-3v8c0 1.656 5.82 3 13 3s13-1.344 13-3v-8c0 1.656-5.82 3-13 3" fill="#67c1b6"/><path d="m13 36c-7.18 0-13-1.344-13-3v8c0 1.656 5.82 3 13 3s13-1.344 13-3v-8c0 1.656-5.82 3-13 3" fill="#67c1b6"/><path d="m13 28c-7.18 0-13-1.344-13-3v8c0 1.656 5.82 3 13 3s13-1.344 13-3v-8c0 1.656-5.82 3-13 3" fill="#67c1b6"/><path d="m26 25c0 1.657-5.82 3-13 3s-13-1.343-13-3 5.82-3 13-3 13 1.343 13 3" fill="#87d6cd"/><g stroke="#414547" stroke-linecap="round" stroke-linejoin="round" stroke-width="2"><path d="m50 15c0 1.657-5.82 3-13 3s-13-1.343-13-3 5.82-3 13-3 13 1.343 13 3z"/><path d="m26.001 40.5996c2.303.842 6.368 1.4 10.999 1.4 7.18 0 13-1.342 13-3v-24"/><path d="m25.9951 32.5977c2.302.843 6.37 1.402 11.005 1.402 7.18 0 13-1.342 13-3"/><path d="m25.8418 24.54c2.271.875 6.419 1.46 11.158 1.46 7.18 0 13-1.343 13-3"/><path d="m24 15v8.401"/><path d="m26 25c0 1.657-5.82 3-13 3s-13-1.343-13-3 5.82-3 13-3 13 1.343 13 3z"/><path d="m26 33c0 1.657-5.82 3-13 3s-13-1.343-13-3"/><path d="m26 41c0 1.657-5.82 3-13 3s-13-1.343-13-3"/><path d="m0 25v24c0 1.657 5.82 3 13 3s13-1.343 13-3v-24"/><path d="m34.9443 8.0068c-1.765-4.733-5.554-8.007-9.944-8.007-6.076 0-11 6.268-11 14v4"/><path d="m9 13 5 5 5-5"/></g></g></svg>